:SAMPLES-PER-SECOND 30
:FULLY-SPECIFIED
:DEGREES
186
root  67.493 36.6955 -4.56234 -137.969 -3.13319 176.653
RightUpLeg  -80.4809 -23.1851 29.4813
RightLeg  33.3409 4.31726 2.8
RightFoot  0.0670549 1.11834 -11.1477
RightToes  0.00048216 0.542163 -0.142577
Spine  69.2098 -5.82131 7.5013
Spine1  11.8029 1.07718 -6.50382
HEad  -35.6609 -1.91548 0.149238
LeftShoulder1  3.55993 -23.5063 -5.3019
LeftArm  -101.889 -66.0964 35.8108
LeftForeArm  6.50709 -19.6046 -2.35272
LeftHand  -0.25398 0.0180481 5.50724
RightShoulder  1.85462 11.6105 4.38898
RightArm  -79.7834 45.4773 -26.6383
RightForeArm  -12.2409 12.9727 0.383027
RightHand  0.98903 9.18502 7.34405
LeftUpLeg  -78.6796 29.1143 -31.303
LeftLeg  31.1262 -12.6193 -7.77508
LeftFoot  0.384484 -0.133931 1.28192
LeftToes  1.06246e-005 4.65855e-005 -8.18505e-006
187
root  67.683 36.6512 -4.7062 -137.59 -3.54004 176.639
RightUpLeg  -81.0423 -23.1183 30.1533
RightLeg  34.0137 4.20106 2.78936
RightFoot  -0.51968 1.16265 -12.2508
RightToes  0.00048216 0.542163 -0.142577
Spine  69.3445 -5.8032 7.32079
Spine1  11.8117 1.01036 -6.66171
HEad  -35.4502 -1.31985 -0.178707
LeftShoulder1  3.17824 -23.1678 -3.89207
LeftArm  -102.249 -65.5654 33.2207
LeftForeArm  8.20186 -20.8337 -3.1006
LeftHand  -0.25398 0.0180481 5.50724
RightShoulder  1.84817 11.5908 4.35859
RightArm  -80.0586 46.1946 -25.5349
RightForeArm  -12.3266 13.2991 0.513471
RightHand  0.800128 9.7069 5.60296
LeftUpLeg  -79.2384 29.4842 -31.8115
LeftLeg  31.2322 -13.3278 -8.25134
LeftFoot  -0.0903533 -0.0743484 0.761999
LeftToes  1.06246e-005 4.65855e-005 -8.18505e-006
188
root  67.814 36.6041 -4.80627 -137.388 -3.80144 176.513
RightUpLeg  -81.5812 -23.2278 30.6901
RightLeg  34.701 4.09153 2.78176
RightFoot  -1.02176 1.15465 -12.7909
RightToes  0.00048216 0.542163 -0.142577
Spine  69.4005 -5.61594 7.20703
Spine1  11.8962 1.09688 -6.48731
HEad  -35.2947 -1.19916 -0.289982
LeftShoulder1  3.05626 -23.2241 -3.349
LeftArm  -102.785 -65.5776 30.299
LeftForeArm  12.3011 -22.9281 -4.13278
LeftHand  -0.25398 0.0180481 5.50724
RightShoulder  1.84251 11.221 4.66311
RightArm  -82.3115 46.6198 -23.8881
RightForeArm  -10.5236 15.157 1.13716
RightHand  0.538868 9.18141 3.73646
LeftUpLeg  -79.4686 29.5419 -31.9471
LeftLeg  31.3999 -13.5572 -8.44913
LeftFoot  -0.385088 -0.0528001 0.575461
LeftToes  1.06246e-005 4.65855e-005 -8.18505e-006
189
root  67.8832 36.5507 -4.85855 -137.406 -3.86233 176.491
RightUpLeg  -81.8366 -23.1964 30.7584
RightLeg  35.3781 3.74575 2.59147
RightFoot  -1.25774 1.10034 -12.5032
RightToes  0.00048216 0.542163 -0.142577
Spine  69.4225 -5.3659 7.14669
Spine1  11.985 1.26825 -6.24703
HEad  -35.5083 -1.09794 -0.41193
LeftShoulder1  3.15867 -23.5955 -3.59323
LeftArm  -101.62 -65.6865 29.1292
LeftForeArm  14.9048 -24.4246 -4.46308
LeftHand  -0.25398 0.0180481 5.50724
RightShoulder  1.79606 10.7707 4.74186
RightArm  -84.0213 46.761 -22.3798
RightForeArm  -10.3861 17.3766 2.37597
RightHand  0.0093914 7.88765 -0.365425
LeftUpLeg  -79.5022 29.4737 -31.542
LeftLeg  31.8372 -13.3271 -8.44489
LeftFoot  -0.622595 -0.0455508 0.525009
LeftToes  1.06246e-005 4.65855e-005 -8.18505e-006
190
root  67.8727 36.4892 -4.86276 -137.628 -3.73922 176.591
RightUpLeg  -81.8946 -23.087 30.5242
RightLeg  36.0429 3.37859 2.37196
RightFoot  -1.42627 1.04579 -12.1083
RightToes  0.00048216 0.542163 -0.142577
Spine  69.5355 -5.31848 7.13255
Spine1  11.8495 1.36933 -6.43719
HEad  -35.9006 -0.637921 -0.831743
LeftShoulder1  3.30794 -23.6433 -4.18834
LeftArm  -101.088 -66.1936 30.39
LeftForeArm  15.3622 -24.017 -4.32249
LeftHand  -0.25398 0.0180481 5.50724
RightShoulder  1.79544 10.857 4.65193
RightArm  -83.0229 46.9054 -21.9129
RightForeArm  -12.927 17.5833 2.71883
RightHand  -0.524881 7.9131 -5.02424
LeftUpLeg  -79.416 29.385 -30.8273
LeftLeg  32.551 -12.738 -8.29073
LeftFoot  -1.03284 -0.0466015 0.582286
LeftToes  1.06246e-005 4.65855e-005 -8.18505e-006
191
root  67.7759 36.4234 -4.80908 -138.067 -3.55776 176.751
RightUpLeg  -81.8244 -23.1391 30.3033
RightLeg  36.5645 3.20479 2.28101
RightFoot  -1.59527 1.02394 -12.0772
RightToes  0.00048216 0.542163 -0.142577
Spine  69.7173 -5.44154 7.23577
Spine1  11.4919 1.427 -6.88677
HEad  -35.9095 0.0381094 -1.69461
LeftShoulder1  3.36189 -23.4648 -4.50374
LeftArm  -101.526 -67.1312 32.3553
LeftForeArm  13.7536 -21.999 -3.62481
LeftHand  -0.25398 0.0180481 5.50724
RightShoulder  1.85927 11.3814 4.63728
RightArm  -80.8551 47.3068 -22.2346
RightForeArm  -15.331 15.3479 1.58813
RightHand  -0.818678 9.28033 -6.98719
LeftUpLeg  -79.1519 29.2226 -29.9189
LeftLeg  33.4376 -11.8756 -7.98493
LeftFoot  -1.6603 -0.0566164 0.788238
LeftToes  1.06246e-005 4.65855e-005 -8.18505e-006
